<?xml version="1.0" standalone="no"?>
<!DOCTYPE svg PUBLIC "-//W3C//DTD SVG 20010904//EN"
 "http://www.w3.org/TR/2001/REC-SVG-20010904/DTD/svg10.dtd">
<svg version="1.0" xmlns="http://www.w3.org/2000/svg"
 width="475.000000pt" height="475.000000pt" viewBox="0 0 475.000000 475.000000"
 preserveAspectRatio="xMidYMid meet">
<metadata>
Created by potrace 1.11, written by Peter Selinger 2001-2013
</metadata>
<g transform="translate(0.000000,475.000000) scale(0.100000,-0.100000)"
fill="#000000" stroke="none">
<path d="M1388 4675 c-2 -2 -43 -6 -93 -9 -49 -3 -101 -8 -115 -11 -14 -3 -41
-8 -60 -11 -37 -6 -156 -39 -205 -56 -437 -157 -763 -509 -869 -940 -57 -230
-54 -388 14 -698 70 -325 211 -643 448 -1010 220 -341 446 -615 792 -960 176
-176 210 -207 430 -400 68 -60 419 -337 519 -409 97 -71 116 -82 135 -73 28
13 353 275 481 387 292 256 624 584 847 840 31 36 197 235 216 260 237 307
400 556 540 828 64 124 144 301 168 372 2 6 19 55 39 110 66 193 86 448 49
629 -2 12 -7 37 -10 56 -11 67 -67 216 -117 314 -163 318 -445 558 -797 676
-461 155 -979 68 -1352 -227 -56 -45 -68 -50 -78 -38 -24 29 -163 129 -245
176 -188 108 -393 169 -620 185 -44 3 -88 7 -97 8 -9 2 -18 3 -20 1z"/>
</g>
</svg>
