<svg xmlns="http://www.w3.org/2000/svg" viewBox="0 0 241.28 245.35"><defs><style>.a,.c{fill:none;}.a,.b,.c{stroke:#000;stroke-miterlimit:10;}.a{stroke-width:18.98px;}.b{fill:#fff;stroke-width:23.73px;}.c{stroke-linecap:round;stroke-width:11.39px;}</style></defs><title>Asset 2</title><path class="a" d="M182.54,179.83a44.28,44.28,0,0,1-44.28-44.28c0-24.46,19.82-21.51,44.28-21.51,12.11,0,23.08-.72,31.07,1.52a94.91,94.91,0,0,0-182.68-.73c7.6-1.33,17.27-.79,27.8-.79C83.19,114,103,111.1,103,135.55a44.28,44.28,0,0,1-70.89,35.39,94.91,94.91,0,0,0,181.22-3.59A44.12,44.12,0,0,1,182.54,179.83Z"/><line class="b" x1="93.08" y1="127.2" x2="148.2" y2="127.2"/><path class="c" d="M96.69,198.81s26.21,17.17,47.89,0"/><path class="a" d="M103,135.55a44.28,44.28,0,1,1-88.56,0C14.46,111.1,34.28,114,58.74,114S103,111.1,103,135.55Z"/><path class="a" d="M226.82,135.55a44.28,44.28,0,1,1-88.56,0c0-24.46,19.82-21.51,44.28-21.51S226.82,111.1,226.82,135.55Z"/><circle cx="46.99" cy="62.35" r="34.34"/><circle cx="34.34" cy="80.43" r="34.34"/><circle cx="87.84" cy="55.12" r="34.34"/><circle cx="103.02" cy="55.12" r="34.34"/><circle cx="127.42" cy="46.09" r="34.34"/><circle cx="154.98" cy="62.35" r="34.34"/><circle cx="192.48" cy="62.35" r="34.34"/><circle cx="206.94" cy="80.43" r="34.34"/><circle cx="161.76" cy="40.67" r="34.34"/><circle cx="138.26" cy="34.34" r="34.34"/><path d="M150,34.34a34.34,34.34,0,0,1-68.68,0C81.33,15.37,96.7,1,115.67,1S150,15.37,150,34.34Z"/><circle cx="96.69" cy="34.34" r="34.34"/><circle cx="68.68" cy="40.67" r="34.34"/></svg>