<svg xmlns="http://www.w3.org/2000/svg" xmlns:xlink="http://www.w3.org/1999/xlink" viewBox="0 0 597.76 807.8"><defs><style>.a,.g,.i{fill:none;}.b{fill:#315363;}.c,.h{fill:#fff;}.d{fill:#325a70;}.e,.l{fill:#e0e0e0;}.f{clip-path:url(#a);}.g,.h,.i{stroke:#000;stroke-miterlimit:10;}.g{stroke-width:15.87px;}.h{stroke-width:19.85px;}.i{stroke-linecap:round;stroke-width:9.52px;}.j{fill:#0071bc;opacity:0.82;}.k{fill:#aadcf7;opacity:0.52;}.l{opacity:0.15;}.m{fill:#a71d33;}.n{fill:#3ba548;}.o{fill:#1e6982;}</style><clipPath id="a"><path class="a" d="M382.68,98c0,87.26-51,158-114,158s-114-70.74-114-158"/></clipPath></defs><title>Asset 2</title><rect class="b" x="125.68" y="208" width="291" height="385" rx="55.35" ry="55.35"/><rect class="c" x="154.68" y="281" width="228" height="273" rx="70.4" ry="70.4"/><rect class="d" x="385.68" y="118" width="44" height="108" rx="11.4" ry="11.4"/><path class="e" d="M269.13,554H227.51c-40.06,0-72.83-30.62-72.83-68V349c0-37.42,32.78-68,72.83-68h41.62"/><rect class="b" x="108.68" y="118" width="44" height="108" rx="11.4" ry="11.4"/><circle class="c" cx="268.68" cy="146" r="146"/><path class="e" d="M268.68,292a146,146,0,0,1,0-292"/><g class="f"><path class="g" d="M320.89,205.39a37,37,0,0,1-37-37c0-20.45,16.58-18,37-18,10.13,0,19.3-.6,26,1.27A79.38,79.38,0,0,0,194.11,151c6.36-1.11,14.44-.66,23.25-.66,20.45,0,37-2.47,37,18A37,37,0,0,1,195.1,198a79.38,79.38,0,0,0,151.55-3A36.9,36.9,0,0,1,320.89,205.39Z"/><line class="h" x1="246.07" y1="161.38" x2="292.17" y2="161.38"/><path class="i" d="M249.1,221.26s21.92,14.36,40.05,0"/><path class="g" d="M254.39,168.36a37,37,0,1,1-74.06,0c0-20.45,16.58-18,37-18S254.39,147.91,254.39,168.36Z"/><path class="g" d="M357.92,168.36a37,37,0,1,1-74.06,0c0-20.45,16.58-18,37-18S357.92,147.91,357.92,168.36Z"/><circle cx="207.53" cy="107.15" r="28.72"/><circle cx="196.95" cy="122.26" r="28.72"/><circle cx="241.69" cy="101.1" r="28.72"/><circle cx="254.39" cy="101.1" r="28.72"/><circle cx="274.79" cy="93.54" r="28.72"/><circle cx="297.84" cy="107.15" r="28.72"/><circle cx="329.2" cy="107.15" r="28.72"/><circle cx="341.29" cy="122.26" r="28.72"/><circle cx="303.51" cy="89.01" r="28.72"/><circle cx="283.86" cy="83.72" r="28.72"/><path d="M293.68,83.72a28.72,28.72,0,1,1-57.44,0c0-15.86,12.86-27.88,28.72-27.88S293.68,67.86,293.68,83.72Z"/><circle cx="249.1" cy="83.72" r="28.72"/><circle cx="225.67" cy="89.01" r="28.72"/></g><path class="j" d="M382.68,98c0,87.26-51,158-114,158s-114-70.74-114-158"/><path class="k" d="M382.68,98c0,29.82-51,54-114,54s-114-24.18-114-54"/><rect class="c" x="319.01" y="208.67" width="286.25" height="74" rx="7.88" ry="7.88" transform="translate(-57.64 307) rotate(-34.72)"/><rect class="e" x="53.77" y="592.5" width="270.39" height="99.24" rx="8.9" ry="8.9" transform="translate(-476.56 713.51) rotate(-79.72)"/><rect class="c" x="222.77" y="588.5" width="270.39" height="99.24" rx="8.9" ry="8.9" transform="translate(-206.06 1104.18) rotate(-100.28)"/><rect class="e" x="-26.19" y="391.65" width="287.86" height="74" rx="7.89" ry="7.89" transform="translate(-286.05 242.76) rotate(-49.92)"/><path class="l" d="M268.68,292a146,146,0,0,1,0-292"/><rect class="b" x="174.9" y="321" width="186.56" height="92" rx="5.96" ry="5.96"/><circle class="m" cx="336.11" cy="389.09" r="7.73"/><circle class="n" cx="336.11" cy="367.85" r="7.73"/><circle class="o" cx="336.11" cy="346.61" r="7.73"/><rect class="l" x="190.23" y="338.89" width="107.33" height="11.93"/><rect class="l" x="190.23" y="363.59" width="107.33" height="11.93"/><rect class="l" x="190.23" y="388.3" width="107.33" height="11.93"/><rect class="d" x="499.8" y="167.91" width="33.04" height="81.11" rx="8.56" ry="8.56" transform="translate(-32.57 302.06) rotate(-31.66)"/><rect class="d" x="364.55" y="718.48" width="33.51" height="110.46" rx="10.08" ry="10.08" transform="translate(-311.97 1286.92) rotate(-100.28)"/><rect class="b" x="145.55" y="724.48" width="33.51" height="110.46" rx="10.08" ry="10.08" transform="matrix(0.26, -0.97, 0.97, 0.26, -632.96, 736.85)"/><rect class="b" x="55.14" y="442.18" width="33.04" height="81.11" rx="8.56" ry="8.56" transform="translate(-340.96 222.15) rotate(-49.28)"/></svg>