<svg xmlns="http://www.w3.org/2000/svg" viewBox="0 0 604.21 270.7"><defs><style>.a,.c{fill:none;}.a,.b,.c{stroke:#000;stroke-miterlimit:10;}.a{stroke-width:18.98px;}.b{fill:#fff;stroke-width:23.73px;}.c{stroke-linecap:round;stroke-width:11.39px;}.d{font-size:125.98px;font-family:Haettenschweiler, Haettenschweiler;}</style></defs><title>Asset 1</title><path class="a" d="M182.54,205.18a44.28,44.28,0,0,1-44.28-44.28c0-24.46,19.82-21.51,44.28-21.51,12.11,0,23.08-.72,31.07,1.52a94.91,94.91,0,0,0-182.68-.73c7.6-1.33,17.27-.79,27.8-.79,24.46,0,44.28-2.95,44.28,21.51a44.28,44.28,0,0,1-70.89,35.39,94.91,94.91,0,0,0,181.22-3.59A44.12,44.12,0,0,1,182.54,205.18Z"/><line class="b" x1="93.08" y1="152.56" x2="148.2" y2="152.56"/><path class="c" d="M96.69,224.16s26.21,17.17,47.89,0"/><path class="a" d="M103,160.9a44.28,44.28,0,1,1-88.56,0c0-24.46,19.82-21.51,44.28-21.51S103,136.45,103,160.9Z"/><path class="a" d="M226.82,160.9a44.28,44.28,0,1,1-88.56,0c0-24.46,19.82-21.51,44.28-21.51S226.82,136.45,226.82,160.9Z"/><circle cx="46.99" cy="87.71" r="34.34"/><circle cx="34.34" cy="105.78" r="34.34"/><circle cx="87.84" cy="80.48" r="34.34"/><circle cx="103.02" cy="80.48" r="34.34"/><circle cx="127.42" cy="71.44" r="34.34"/><circle cx="154.98" cy="87.71" r="34.34"/><circle cx="192.48" cy="87.71" r="34.34"/><circle cx="206.94" cy="105.78" r="34.34"/><circle cx="161.76" cy="66.02" r="34.34"/><circle cx="138.26" cy="59.69" r="34.34"/><path d="M150,59.69a34.34,34.34,0,0,1-68.68,0c0-19,15.37-33.34,34.34-33.34S150,40.73,150,59.69Z"/><circle cx="96.69" cy="59.69" r="34.34"/><circle cx="68.68" cy="66.02" r="34.34"/><text class="d" transform="translate(258.32 107.08)">eddie</text><text class="d" transform="translate(258.32 225.57)">barkman</text></svg>