<svg xmlns="http://www.w3.org/2000/svg" viewBox="0 0 195.04 193.58"><defs><style>.a,.c{fill:none;}.a,.b,.c{stroke:#000;stroke-miterlimit:10;}.a{stroke-width:11.56px;}.b{fill:#fff;stroke-width:14.46px;}.c{stroke-linecap:round;stroke-width:6.94px;}.d{font-size:109.78px;font-family:FontAwesome, FontAwesome;}</style></defs><title>logoPhone</title><path class="a" d="M159.25,109.55a27,27,0,0,1-27-27c0-14.9,12.08-13.1,27-13.1,7.38,0,14.06-.44,18.93.93A57.82,57.82,0,0,0,66.9,70c4.63-.81,10.52-.48,16.94-.48,14.9,0,27-1.8,27,13.1a27,27,0,0,1-43.19,21.56A57.82,57.82,0,0,0,178,101.95,26.88,26.88,0,0,1,159.25,109.55Z"/><line class="b" x1="104.75" y1="77.49" x2="138.33" y2="77.49"/><path class="c" d="M107,121.11s16,10.46,29.18,0"/><path class="a" d="M110.81,82.58a27,27,0,0,1-54,0c0-14.9,12.08-13.1,27-13.1S110.81,67.68,110.81,82.58Z"/><path class="a" d="M186.23,82.58a27,27,0,1,1-54,0c0-14.9,12.08-13.1,27-13.1S186.23,67.68,186.23,82.58Z"/><circle cx="76.68" cy="37.99" r="20.92"/><circle cx="68.97" cy="49" r="20.92"/><circle cx="101.56" cy="33.58" r="20.92"/><circle cx="110.81" cy="33.58" r="20.92"/><circle cx="125.67" cy="28.08" r="20.92"/><circle cx="142.46" cy="37.99" r="20.92"/><circle cx="165.31" cy="37.99" r="20.92"/><circle cx="174.12" cy="49" r="20.92"/><circle cx="146.59" cy="24.77" r="20.92"/><circle cx="132.28" cy="20.92" r="20.92"/><path d="M139.43,20.92a20.92,20.92,0,0,1-41.84,0C97.6,9.37,107,.61,118.51.61S139.43,9.37,139.43,20.92Z"/><circle cx="106.95" cy="20.92" r="20.92"/><circle cx="89.89" cy="24.77" r="20.92"/><text class="d" transform="translate(4.36 154.57) rotate(16.08)"></text></svg>