<svg xmlns="http://www.w3.org/2000/svg" viewBox="0 0 250.52 73.41"><defs><style>.a,.c{fill:none;}.a,.b,.c{stroke:#fff;stroke-miterlimit:10;}.a{stroke-width:5.68px;}.b,.d,.e{fill:#fff;}.b{stroke-width:7.1px;}.c{stroke-linecap:round;stroke-width:3.41px;}.e{font-size:37.7px;font-family:Haettenschweiler, Haettenschweiler;}</style></defs><title>Asset 3</title><path class="a" d="M54.62,53.81A13.25,13.25,0,0,1,41.37,40.56c0-7.32,5.93-6.44,13.25-6.44,3.62,0,6.91-.21,9.3.46a28.4,28.4,0,0,0-54.66-.22,54.33,54.33,0,0,1,8.32-.24c7.32,0,13.25-.88,13.25,6.44A13.25,13.25,0,0,1,9.61,51.15a28.4,28.4,0,0,0,54.22-1.08A13.2,13.2,0,0,1,54.62,53.81Z"/><line class="b" x1="27.85" y1="38.06" x2="44.35" y2="38.06"/><path class="c" d="M28.93,59.49s7.84,5.14,14.33,0"/><path class="a" d="M30.83,40.56a13.25,13.25,0,1,1-26.5,0c0-7.32,5.93-6.44,13.25-6.44S30.83,33.24,30.83,40.56Z"/><path class="a" d="M67.87,40.56a13.25,13.25,0,0,1-26.5,0c0-7.32,5.93-6.44,13.25-6.44S67.87,33.24,67.87,40.56Z"/><circle class="d" cx="14.06" cy="18.66" r="10.28"/><circle class="d" cx="10.28" cy="24.07" r="10.28"/><circle class="d" cx="26.28" cy="16.49" r="10.28"/><circle class="d" cx="30.83" cy="16.49" r="10.28"/><circle class="d" cx="38.13" cy="13.79" r="10.28"/><circle class="d" cx="46.37" cy="18.66" r="10.28"/><circle class="d" cx="57.59" cy="18.66" r="10.28"/><circle class="d" cx="61.92" cy="24.07" r="10.28"/><circle class="d" cx="48.4" cy="12.17" r="10.28"/><circle class="d" cx="41.37" cy="10.28" r="10.28"/><path class="d" d="M44.89,10.28a10.28,10.28,0,1,1-20.55,0A10,10,0,0,1,34.61.3,10,10,0,0,1,44.89,10.28Z"/><circle class="d" cx="28.93" cy="10.28" r="10.28"/><circle class="d" cx="20.55" cy="12.17" r="10.28"/><text class="e" transform="translate(80.3 48.24)">eddie barkman</text></svg>