<?xml version="1.0" encoding="utf-8"?>
<!-- Generator: Adobe Illustrator 16.0.0, SVG Export Plug-In . SVG Version: 6.00 Build 0)  -->
<!DOCTYPE svg PUBLIC "-//W3C//DTD SVG 1.1//EN" "http://www.w3.org/Graphics/SVG/1.1/DTD/svg11.dtd">
<svg version="1.1" xmlns="http://www.w3.org/2000/svg" xmlns:xlink="http://www.w3.org/1999/xlink" x="0px" y="0px"
	 width="594.39px" height="906.735px" viewBox="0 0 594.39 906.735" enable-background="new 0 0 594.39 906.735"
	 xml:space="preserve">
<g id="Layer_1">
</g>
<g id="Layer_2">
	<g>
		<g>
			<path fill="#FFFFFF" d="M260.006,717.854c3.979,7.266,1.313,16.382-5.953,20.362l-99.905,54.706
				c-7.266,3.979-16.381,1.313-20.361-5.952L41.595,618.608c-3.98-7.266-1.315-16.383,5.951-20.36l99.904-54.708
				c7.267-3.979,16.383-1.313,20.362,5.952L260.006,717.854z"/>
			<circle fill="#FFFFFF" cx="59.759" cy="516.643" r="59.757"/>
			
				<circle fill="none" stroke="#FFFFFF" stroke-width="30.9091" stroke-linecap="round" stroke-linejoin="round" stroke-miterlimit="10" cx="338.911" cy="264.181" r="240"/>
			
				<path fill="none" stroke="#FFFFFF" stroke-width="61" stroke-linecap="round" stroke-linejoin="round" stroke-miterlimit="10" d="
				M127.709,593.347c3.891-0.479,80.954-23.045,80.954-23.045l60.886-68.94"/>
			
				<path fill="none" stroke="#FFFFFF" stroke-width="61" stroke-linecap="round" stroke-linejoin="round" stroke-miterlimit="10" d="
				M119.457,609.314c2.917-2.618,53.188-65.236,53.188-65.236l10.461-91.381"/>
			
				<path fill="none" stroke="#FFFFFF" stroke-width="61" stroke-linecap="round" stroke-linejoin="round" stroke-miterlimit="10" d="
				M238.319,738.993c2.958,5.219,37.303,65.848,37.303,65.848l-23.373,56.291"/>
			
				<path fill="none" stroke="#FFFFFF" stroke-width="61" stroke-linecap="round" stroke-linejoin="round" stroke-miterlimit="10" d="
				M170.92,764.469c-0.166,5.997-2.091,75.653-2.091,75.653l-49.1,36.113"/>
			
				<circle fill="none" stroke="#FFFFFF" stroke-width="30.9091" stroke-linecap="round" stroke-linejoin="round" stroke-miterlimit="10" cx="338.911" cy="264.181" r="240"/>
		</g>
		<g>
			
				<polyline fill="none" stroke="#FFFFFF" stroke-width="45.746" stroke-linecap="round" stroke-linejoin="round" stroke-miterlimit="10" points="
				218.044,314.311 342.921,117.539 450.896,324.071 			"/>
			
				<circle fill="none" stroke="#FFFFFF" stroke-width="30.9091" stroke-linecap="round" stroke-linejoin="round" stroke-miterlimit="10" cx="333.502" cy="255.458" r="240"/>
		</g>
	</g>
</g>
</svg>
